<svg width="128" height="128" viewBox="0 0 128 128" fill="none" xmlns="http://www.w3.org/2000/svg">
  <!-- 背景 -->
  <circle cx="64" cy="64" r="60" fill="#0071e3" />
  
  <!-- 文档图标 -->
  <path d="M44 36C41.7909 36 40 37.7909 40 40V88C40 90.2091 41.7909 92 44 92H84C86.2091 92 88 90.2091 88 88V52L72 36H44Z" fill="white" />
  
  <!-- 文档折角 -->
  <path d="M72 36V52H88L72 36Z" fill="#D1E5FF" />
  
  <!-- 文本线条 -->
  <rect x="50" y="58" width="28" height="3" rx="1.5" fill="#0071e3" />
  <rect x="50" y="66" width="28" height="3" rx="1.5" fill="#0071e3" />
  <rect x="50" y="74" width="20" height="3" rx="1.5" fill="#0071e3" />
  
  <!-- 同步指示器 -->
  <path d="M64 28C49.088 28 37 40.088 37 55C37 59.064 37.944 62.936 39.624 66.4" stroke="white" stroke-width="4" stroke-linecap="round" />
  <path d="M64 82C78.912 82 91 69.912 91 55C91 50.936 90.056 47.064 88.376 43.6" stroke="white" stroke-width="4" stroke-linecap="round" />
  
  <!-- 箭头 -->
  <path d="M35 62L42 70L49 62" stroke="white" stroke-width="4" stroke-linecap="round" stroke-linejoin="round" />
  <path d="M93 48L86 40L79 48" stroke="white" stroke-width="4" stroke-linecap="round" stroke-linejoin="round" />
</svg>