<svg width="128" height="128" viewBox="0 0 128 128" fill="none" xmlns="http://www.w3.org/2000/svg">
  <!-- 背景 -->
  <rect width="128" height="128" rx="28" fill="#0071e3" />
  
  <!-- 文档图标 -->
  <path d="M42 30C38.6863 30 36 32.6863 36 36V92C36 95.3137 38.6863 98 42 98H86C89.3137 98 92 95.3137 92 92V46L76 30H42Z" fill="white" />
  
  <!-- 文档折角 -->
  <path d="M76 30V46H92L76 30Z" fill="#D1E5FF" />
  
  <!-- 文本线条 -->
  <rect x="48" y="56" width="32" height="4" rx="2" fill="#0071e3" />
  <rect x="48" y="66" width="32" height="4" rx="2" fill="#0071e3" />
  <rect x="48" y="76" width="24" height="4" rx="2" fill="#0071e3" />
  
  <!-- 同步箭头 -->
  <g transform="translate(64, 64)">
    <!-- 右侧箭头 -->
    <path d="M32 0C32 -5.52285 27.5228 -10 22 -10V0H32Z" fill="#0071e3" />
    <path d="M22 -10C16.4772 -10 12 -5.52285 12 0H22V-10Z" fill="#0071e3" />
    <rect x="17" y="-10" width="5" height="20" fill="#0071e3" />
    
    <!-- 左侧箭头 -->
    <path d="M-32 0C-32 5.52285 -27.5228 10 -22 10V0H-32Z" fill="#0071e3" />
    <path d="M-22 10C-16.4772 10 -12 5.52285 -12 0H-22V10Z" fill="#0071e3" />
    <rect x="-22" y="-10" width="5" height="20" fill="#0071e3" />
  </g>
  
  <!-- 云同步指示器 -->
  <circle cx="94" cy="34" r="12" fill="#34c759" />
  <path d="M89 34L92 37L99 30" stroke="white" stroke-width="2.5" stroke-linecap="round" stroke-linejoin="round" />
</svg>